<?xml version="1.0" ?>
<svg viewBox="0 0 256 256" xmlns="http://www.w3.org/2000/svg">
  <rect fill="none" height="256" width="256"/><path d="M 192 68 a 8 8 0 0 1 -4.9 7.4 a 8.5 8.5 0 0 1 -3.1 0.6 a 8.3 8.3 0 0 1 -5.7 -2.3 L 154 49.3 l -36.4 36.4 A 8 8 0 0 1 112 88 a 8.3 8.3 0 0 1 -5.7 -2.3 a 8 8 0 0 1 0 -11.3 L 142.7 38 L 118.3 13.7 a 8.4 8.4 0 0 1 -1.7 -8.8 A 8 8 0 0 1 124 0 h 60 a 8 8 0 0 1 8 8 Z m -40 36 a 8 8 0 0 0 -8 8 v 64 H 16 V 48 h 64 a 8 8 0 0 0 0 -16 H 16 A 16 16 0 0 0 0 48 V 176 a 16 16 0 0 0 16 16 H 144 a 16 16 0 0 0 16 -16 V 112 A 8 8 0 0 0 152 104 Z"/>
</svg>

